<svg width="29" height="31" viewBox="0 0 29 31" fill="none" xmlns="http://www.w3.org/2000/svg">
<path d="M14.5014 0.683838C10.5634 0.683838 10.0691 0.701764 8.52246 0.775041C6.9788 0.848632 5.92512 1.10306 5.00316 1.47636C4.04947 1.86193 3.24048 2.37769 2.43451 3.21707C1.62794 4.05614 1.13252 4.89835 0.760956 5.89089C0.401473 6.85103 0.156783 7.9483 0.0873029 9.55473C0.0181251 11.1649 0 11.6798 0 15.7795C0 19.8792 0.0175213 20.3921 0.0876054 22.0023C0.158596 23.6094 0.402983 24.7063 0.761258 25.6662C1.13192 26.659 1.62734 27.5012 2.43361 28.3403C3.23927 29.18 4.04826 29.697 5.00134 30.0826C5.92392 30.4559 6.9779 30.7103 8.52126 30.7839C10.0679 30.8572 10.5618 30.8751 14.4995 30.8751C18.4378 30.8751 18.9306 30.8572 20.4772 30.7839C22.0209 30.7103 23.0758 30.4559 23.9984 30.0826C24.9517 29.697 25.7595 29.18 26.5652 28.3403C27.3718 27.5012 27.8672 26.659 28.2387 25.6665C28.5952 24.7063 28.8399 23.6091 28.9124 22.0027C28.9819 20.3925 29 19.8792 29 15.7795C29 11.6798 28.9819 11.1652 28.9124 9.55504C28.8399 7.94798 28.5952 6.85103 28.2387 5.8912C27.8672 4.89835 27.3718 4.05614 26.5652 3.21707C25.7586 2.37738 24.952 1.86161 23.9974 1.47636C23.0731 1.10306 22.0188 0.848632 20.4751 0.775041C18.9284 0.701764 18.436 0.683838 14.4968 0.683838H14.5014ZM13.2006 3.4042C13.5866 3.40357 14.0174 3.4042 14.5014 3.4042C18.3729 3.4042 18.8318 3.41866 20.3606 3.491C21.7744 3.5583 22.5417 3.80423 23.0528 4.01085C23.7295 4.28446 24.2119 4.61153 24.7191 5.13988C25.2266 5.66823 25.5408 6.17142 25.8042 6.87588C26.0027 7.40737 26.2392 8.20618 26.3036 9.67801C26.3731 11.2693 26.3882 11.7474 26.3882 15.776C26.3882 19.8047 26.3731 20.2827 26.3036 21.874C26.2389 23.3458 26.0027 24.1447 25.8042 24.6762C25.5414 25.3806 25.2266 25.8822 24.7191 26.4103C24.2116 26.9386 23.7298 27.2657 23.0528 27.5393C22.5423 27.7469 21.7744 27.9922 20.3606 28.0595C18.8321 28.1318 18.3729 28.1475 14.5014 28.1475C10.6295 28.1475 10.1706 28.1318 8.64209 28.0595C7.22833 27.9915 6.46103 27.7456 5.94959 27.539C5.27292 27.2654 4.78958 26.9383 4.28208 26.41C3.77457 25.8816 3.4604 25.3797 3.19698 24.6749C2.99851 24.1434 2.76198 23.3446 2.69763 21.8728C2.62815 20.2814 2.61426 19.8034 2.61426 15.7722C2.61426 11.7411 2.62815 11.2656 2.69763 9.67423C2.76228 8.20241 2.99851 7.4036 3.19698 6.87148C3.4598 6.16701 3.77457 5.66383 4.28208 5.13548C4.78958 4.60713 5.27292 4.28006 5.94959 4.00582C6.46072 3.79826 7.22833 3.55295 8.64209 3.48534C9.97973 3.42244 10.4981 3.40357 13.2006 3.40042V3.4042ZM22.2414 5.9107C21.2808 5.9107 20.5014 6.72115 20.5014 7.72155C20.5014 8.72164 21.2808 9.53303 22.2414 9.53303C23.2021 9.53303 23.9814 8.72164 23.9814 7.72155C23.9814 6.72146 23.2021 5.91007 22.2414 5.91007V5.9107ZM14.5014 8.02724C10.3891 8.02724 7.05493 11.4983 7.05493 15.7795C7.05493 20.0607 10.3891 23.5301 14.5014 23.5301C18.6137 23.5301 21.9466 20.0607 21.9466 15.7795C21.9466 11.4983 18.6134 8.02724 14.5011 8.02724H14.5014ZM14.5014 10.7476C17.1706 10.7476 19.3347 13.0003 19.3347 15.7795C19.3347 18.5583 17.1706 20.8114 14.5014 20.8114C11.8318 20.8114 9.66798 18.5583 9.66798 15.7795C9.66798 13.0003 11.8318 10.7476 14.5014 10.7476Z" fill="black"/>
</svg>
