<svg width="30" height="31" viewBox="0 0 30 31" fill="none" xmlns="http://www.w3.org/2000/svg">
<path d="M15 28.5514C7.75126 28.5514 1.875 22.6751 1.875 15.4264C1.875 8.17765 7.75126 2.30139 15 2.30139C22.2487 2.30139 28.125 8.17765 28.125 15.4264C28.125 22.6751 22.2487 28.5514 15 28.5514ZM15 30.4264C23.2843 30.4264 30 23.7107 30 15.4264C30 7.14212 23.2843 0.426392 15 0.426392C6.71573 0.426392 0 7.14212 0 15.4264C0 23.7107 6.71573 30.4264 15 30.4264Z" fill="black"/>
<path d="M15 7.92639C15.5178 7.92639 15.9375 8.34612 15.9375 8.86389V14.4889L21.5625 14.4889C22.0803 14.4889 22.5 14.9086 22.5 15.4264C22.5 15.9442 22.0803 16.3639 21.5625 16.3639H15.9375L15.9375 21.9889C15.9375 22.5067 15.5178 22.9264 15 22.9264C14.4822 22.9264 14.0625 22.5067 14.0625 21.9889L14.0625 16.3639H8.4375C7.91973 16.3639 7.5 15.9442 7.5 15.4264C7.5 14.9086 7.91973 14.4889 8.4375 14.4889H14.0625V8.86389C14.0625 8.34612 14.4822 7.92639 15 7.92639Z" fill="black"/>
</svg>
