<svg width="29" height="29" viewBox="0 0 29 29" fill="none" xmlns="http://www.w3.org/2000/svg">
<path d="M16.3125 0.708514L19.9023 0.708496C20.1615 1.96463 20.8811 3.54935 22.1397 5.12149C23.373 6.66195 25.0073 7.73572 27.1875 7.73572V11.2493C24.0095 11.2493 21.6214 9.82006 19.9375 8.03681V20.0333C19.9375 24.8846 15.8801 28.8173 10.875 28.8173C5.86992 28.8173 1.8125 24.8846 1.8125 20.0333C1.8125 15.1821 5.86992 11.2493 10.875 11.2493V14.7629C7.87195 14.7629 5.4375 17.1226 5.4375 20.0333C5.4375 22.9441 7.87195 25.3037 10.875 25.3037C13.878 25.3037 16.3125 22.9441 16.3125 20.0333V0.708514Z" fill="black"/>
</svg>
