<svg width="27" height="29" viewBox="0 0 27 29" fill="none" xmlns="http://www.w3.org/2000/svg">
<path fill-rule="evenodd" clip-rule="evenodd" d="M1.6875 14.2641C1.6875 21.0812 6.97614 26.6075 13.5 26.6075C20.0239 26.6075 25.3125 21.0812 25.3125 14.2641C25.3125 7.44702 20.0239 1.92069 13.5 1.92069C6.97614 1.92069 1.6875 7.44702 1.6875 14.2641ZM27 14.2641C27 22.055 20.9558 28.3708 13.5 28.3708C6.04416 28.3708 0 22.055 0 14.2641C0 6.47315 6.04416 0.157349 13.5 0.157349C20.9558 0.157349 27 6.47315 27 14.2641ZM7.59375 13.3824C7.12776 13.3824 6.75 13.7772 6.75 14.2641C6.75 14.751 7.12776 15.1458 7.59375 15.1458H17.3693L13.7471 18.9307C13.4176 19.275 13.4176 19.8332 13.7471 20.1776C14.0766 20.5219 14.6109 20.5219 14.9404 20.1776L20.0029 14.8875C20.3324 14.5432 20.3324 13.985 20.0029 13.6407L14.9404 8.35063C14.6109 8.00631 14.0766 8.00631 13.7471 8.35063C13.4176 8.69494 13.4176 9.25319 13.7471 9.5975L17.3693 13.3824H7.59375Z" fill="black" fill-opacity="0.4"/>
</svg>
